Tilt-Warp-ModelShort.ufo
<glyph name="exclam" format="2">
  <advance width="291"/>
  <unicode hex="0021"/>
  <outline>
    <contour>
      <point x="146" y="-16" type="curve" smooth="yes"/>
      <point x="203" y="-16"/>
      <point x="251" y="31"/>
      <point x="251" y="88" type="curve" smooth="yes"/>
      <point x="251" y="144"/>
      <point x="203" y="191"/>
      <point x="146" y="191" type="curve" smooth="yes"/>
      <point x="87" y="191"/>
      <point x="40" y="144"/>
      <point x="40" y="88" type="curve" smooth="yes"/>
      <point x="40" y="31"/>
      <point x="87" y="-16"/>
    </contour>
    <contour>
      <point x="73" y="265" type="line"/>
      <point x="218" y="265" type="line"/>
      <point x="228" y="730" type="line"/>
      <point x="63" y="730" type="line"/>
    </contour>
  </outline>
</glyph>
<glyph name="parenright" format="2">
  <advance width="398"/>
  <unicode hex="0029"/>
  <outline>
    <contour>
      <point x="174" y="730" type="curve"/>
      <point x="-8" y="730" type="line"/>
      <point x="252" y="477"/>
      <point x="254" y="94"/>
      <point x="-10" y="-160" type="curve"/>
      <point x="173" y="-160" type="line"/>
      <point x="413" y="78"/>
      <point x="413" y="490"/>
    </contour>
  </outline>
</glyph>
<glyph name="slash" format="2">
  <advance width="510"/>
  <unicode hex="002F"/>
  <outline>
    <contour>
      <point x="10" y="-160" type="line"/>
      <point x="185" y="-160" type="line"/>
      <point x="485" y="750" type="line"/>
      <point x="310" y="750" type="line"/>
    </contour>
  </outline>
</glyph>
<glyph name="two" format="2">
  <advance width="529"/>
  <unicode hex="0032"/>
  <outline>
    <contour>
      <point x="50" y="0" type="line"/>
      <point x="487" y="0" type="line"/>
      <point x="487" y="156" type="line"/>
      <point x="50" y="156" type="line"/>
    </contour>
    <contour>
      <point x="238" y="127" type="line"/>
      <point x="360" y="250" type="line" smooth="yes"/>
      <point x="445" y="335"/>
      <point x="486" y="404"/>
      <point x="486.0" y="487" type="curve" smooth="yes"/>
      <point x="486" y="651"/>
      <point x="314" y="741"/>
      <point x="63" y="663" type="curve"/>
      <point x="63" y="494" type="line"/>
      <point x="234" y="555"/>
      <point x="316" y="526"/>
      <point x="316.0" y="468" type="curve" smooth="yes"/>
      <point x="316" y="438"/>
      <point x="300" y="407"/>
      <point x="203" y="310" type="curve" smooth="yes"/>
      <point x="50" y="156" type="line"/>
    </contour>
  </outline>
</glyph>
<glyph name="seven" format="2">
  <advance width="498"/>
  <unicode hex="0037"/>
  <outline>
    <contour>
      <point x="468" y="524" type="line"/>
      <point x="288" y="524" type="line"/>
      <point x="68" y="0" type="line"/>
      <point x="248" y="0" type="line"/>
    </contour>
    <contour>
      <point x="468" y="680" type="line"/>
      <point x="30" y="680" type="line"/>
      <point x="30" y="524" type="line"/>
      <point x="468" y="524" type="line"/>
    </contour>
  </outline>
</glyph>
<glyph name="nine" format="2">
  <advance width="562"/>
  <unicode hex="0039"/>
  <outline>
    <contour>
      <point x="79.0" y="189.0" type="curve"/>
      <point x="79.0" y="16.0" type="line"/>
      <point x="346.0" y="-69.0"/>
      <point x="537.0" y="38.0"/>
      <point x="537.0" y="360.0" type="curve" smooth="yes"/>
      <point x="537.0" y="588.0"/>
      <point x="427.0" y="694.0"/>
      <point x="275.0" y="694.0" type="curve" smooth="yes"/>
      <point x="121.0" y="694.0"/>
      <point x="25.0" y="588.0"/>
      <point x="25.0" y="449.0" type="curve" smooth="yes"/>
      <point x="25.0" y="242.0"/>
      <point x="238.0" y="189.0"/>
      <point x="362.0" y="261.0" type="curve"/>
      <point x="367.0" y="145.0"/>
      <point x="228.0" y="106.0"/>
    </contour>
    <contour>
      <point x="276.0" y="543.0" type="curve" smooth="yes"/>
      <point x="326.0" y="543.0"/>
      <point x="360.0" y="506.0"/>
      <point x="360.0" y="453.0" type="curve" smooth="yes"/>
      <point x="360.0" y="403.0"/>
      <point x="326.0" y="369.0"/>
      <point x="276.0" y="369.0" type="curve" smooth="yes"/>
      <point x="226.0" y="369.0"/>
      <point x="191.0" y="404.0"/>
      <point x="191.0" y="456.0" type="curve" smooth="yes"/>
      <point x="191.0" y="507.0"/>
      <point x="226.0" y="543.0"/>
    </contour>
  </outline>
</glyph>
<glyph name="question" format="2">
  <advance width="524"/>
  <unicode hex="003F"/>
  <outline>
    <contour>
      <point x="226" y="-16" type="curve" smooth="yes"/>
      <point x="283" y="-16"/>
      <point x="331" y="31"/>
      <point x="331" y="88" type="curve" smooth="yes"/>
      <point x="331" y="144"/>
      <point x="283" y="191"/>
      <point x="226" y="191" type="curve" smooth="yes"/>
      <point x="167" y="191"/>
      <point x="120" y="144"/>
      <point x="120" y="88" type="curve" smooth="yes"/>
      <point x="120" y="31"/>
      <point x="167" y="-16"/>
    </contour>
    <contour>
      <point x="146" y="265" type="curve"/>
      <point x="288" y="265" type="line"/>
      <point x="268" y="378"/>
      <point x="489" y="347"/>
      <point x="489" y="537" type="curve" smooth="yes"/>
      <point x="489" y="720"/>
      <point x="283" y="778"/>
      <point x="35" y="702" type="curve"/>
      <point x="35" y="550" type="line"/>
      <point x="221" y="607"/>
      <point x="320" y="579"/>
      <point x="320" y="525" type="curve" smooth="yes"/>
      <point x="320" y="457"/>
      <point x="103" y="474"/>
    </contour>
  </outline>
</glyph>
<glyph name="A" format="2">
  <advance width="665"/>
  <unicode hex="0041"/>
  <outline>
    <contour>
      <point x="4" y="0" type="line"/>
      <point x="180" y="0" type="line"/>
      <point x="386" y="680" type="line"/>
      <point x="228" y="680" type="line"/>
    </contour>
    <contour>
      <point x="485" y="0" type="line"/>
      <point x="661" y="0" type="line"/>
      <point x="437" y="680" type="line"/>
      <point x="279" y="680" type="line"/>
    </contour>
    <contour>
      <point x="140" y="129" type="line"/>
      <point x="503" y="129" type="line"/>
      <point x="503" y="280" type="line"/>
      <point x="140" y="280" type="line"/>
    </contour>
  </outline>
</glyph>
<glyph name="B" format="2">
  <advance width="591"/>
  <unicode hex="0042"/>
  <outline>
    <contour>
      <point x="65" y="0" type="line"/>
      <point x="238" y="0" type="line"/>
      <point x="238" y="680" type="line"/>
      <point x="65" y="680" type="line"/>
    </contour>
    <contour>
      <point x="373" y="470" type="curve" smooth="yes"/>
      <point x="373.0" y="436.79245283018867"/>
      <point x="350.0" y="415"/>
      <point x="315" y="415" type="curve" smooth="yes"/>
      <point x="190" y="415" type="line"/>
      <point x="190" y="310" type="line"/>
      <point x="311" y="310" type="line" smooth="yes"/>
      <point x="459.0" y="310.0"/>
      <point x="541.0" y="380"/>
      <point x="541" y="485" type="curve" smooth="yes"/>
      <point x="541.0" y="602"/>
      <point x="448.0" y="680.0"/>
      <point x="310" y="680" type="curve" smooth="yes"/>
      <point x="190" y="680" type="line"/>
      <point x="190" y="525" type="line"/>
      <point x="315" y="525" type="line" smooth="yes"/>
      <point x="350.0" y="525"/>
      <point x="373.0" y="503.20754716981133"/>
    </contour>
    <contour>
      <point x="392.0" y="218.0" type="curve" smooth="yes"/>
      <point x="392.0" y="178.75409836065575"/>
      <point x="365.0" y="155.0"/>
      <point x="323.0" y="155.0" type="curve" smooth="yes"/>
      <point x="190.0" y="155.0" type="line"/>
      <point x="190.0" y="0.0" type="line"/>
      <point x="318.0" y="0.0" type="line" smooth="yes"/>
      <point x="463.0" y="0.0"/>
      <point x="561.0" y="79"/>
      <point x="561.0" y="200.0" type="curve" smooth="yes"/>
      <point x="561.0" y="312"/>
      <point x="474.0" y="393.0"/>
      <point x="319.0" y="393.0" type="curve" smooth="yes"/>
      <point x="190.0" y="393.0" type="line"/>
      <point x="190.0" y="281.0" type="line"/>
      <point x="323.0" y="281.0" type="line" smooth="yes"/>
      <point x="365.0" y="281.0"/>
      <point x="392.0" y="255.18032786885246"/>
    </contour>
  </outline>
</glyph>
<glyph name="E" format="2">
  <advance width="528"/>
  <unicode hex="0045"/>
  <outline>
    <contour>
      <point x="65" y="0" type="line"/>
      <point x="240" y="0" type="line"/>
      <point x="240" y="680" type="line"/>
      <point x="65" y="680" type="line"/>
    </contour>
    <contour>
      <point x="150" y="273" type="line"/>
      <point x="453" y="273" type="line"/>
      <point x="453" y="426" type="line"/>
      <point x="150" y="426" type="line"/>
    </contour>
    <contour>
      <point x="150" y="522" type="line"/>
      <point x="473" y="522" type="line"/>
      <point x="473" y="680" type="line"/>
      <point x="150" y="680" type="line"/>
    </contour>
    <contour>
      <point x="150" y="0" type="line"/>
      <point x="473" y="0" type="line"/>
      <point x="473" y="158" type="line"/>
      <point x="150" y="158" type="line"/>
    </contour>
  </outline>
</glyph>
<glyph name="I" format="2">
  <advance width="325"/>
  <unicode hex="0049"/>
  <outline>
    <contour>
      <point x="75" y="0" type="line"/>
      <point x="250" y="0" type="line"/>
      <point x="250" y="680" type="line"/>
      <point x="75" y="680" type="line"/>
    </contour>
  </outline>
</glyph>
<glyph name="L" format="2">
  <advance width="483"/>
  <unicode hex="004C"/>
  <outline>
    <contour>
      <point x="65" y="0" type="line"/>
      <point x="240" y="0" type="line"/>
      <point x="240" y="680" type="line"/>
      <point x="65" y="680" type="line"/>
    </contour>
    <contour>
      <point x="150" y="0" type="line"/>
      <point x="453" y="0" type="line"/>
      <point x="453" y="161" type="line"/>
      <point x="150" y="161" type="line"/>
    </contour>
  </outline>
</glyph>
<glyph name="S" format="2">
  <advance width="544"/>
  <unicode hex="0053"/>
  <outline>
    <contour>
      <point x="514" y="207" type="curve" smooth="yes"/>
      <point x="514" y="-9"/>
      <point x="280" y="-47"/>
      <point x="49" y="21" type="curve"/>
      <point x="49" y="211" type="line"/>
      <point x="182" y="132"/>
      <point x="337" y="132"/>
      <point x="337" y="200" type="curve" smooth="yes"/>
      <point x="337" y="284"/>
      <point x="45" y="257"/>
      <point x="45" y="474" type="curve" smooth="yes"/>
      <point x="45" y="669"/>
      <point x="250" y="733"/>
      <point x="485" y="662" type="curve"/>
      <point x="485" y="472" type="line"/>
      <point x="365" y="555"/>
      <point x="221" y="545"/>
      <point x="221" y="483" type="curve" smooth="yes"/>
      <point x="221" y="399"/>
      <point x="514" y="429"/>
    </contour>
  </outline>
</glyph>
<glyph name="T" format="2">
  <advance width="532"/>
  <unicode hex="0054"/>
  <outline>
    <contour>
      <point x="179" y="0" type="line"/>
      <point x="354" y="0" type="line"/>
      <point x="354" y="680" type="line"/>
      <point x="179" y="680" type="line"/>
    </contour>
    <contour>
      <point x="25" y="519" type="line"/>
      <point x="507" y="519" type="line"/>
      <point x="507" y="680" type="line"/>
      <point x="25" y="680" type="line"/>
    </contour>
  </outline>
</glyph>
<glyph name="U" format="2">
  <advance width="683"/>
  <unicode hex="0055"/>
  <outline>
    <contour>
      <point x="623" y="257" type="line" smooth="yes"/>
      <point x="623" y="90"/>
      <point x="502" y="-16"/>
      <point x="342" y="-16" type="curve" smooth="yes"/>
      <point x="180" y="-16"/>
      <point x="60" y="90"/>
      <point x="60" y="257" type="curve" smooth="yes"/>
      <point x="60" y="680" type="line"/>
      <point x="235" y="680" type="line"/>
      <point x="235" y="268" type="line" smooth="yes"/>
      <point x="235" y="196"/>
      <point x="279" y="148"/>
      <point x="342" y="148" type="curve" smooth="yes"/>
      <point x="404" y="148"/>
      <point x="448" y="196"/>
      <point x="448" y="268" type="curve" smooth="yes"/>
      <point x="448" y="680" type="line"/>
      <point x="623" y="680" type="line"/>
    </contour>
  </outline>
</glyph>
<glyph name="Z" format="2">
  <advance width="575"/>
  <unicode hex="005A"/>
  <outline>
    <contour>
      <point x="45" y="524" type="line"/>
      <point x="530" y="524" type="line"/>
      <point x="530" y="680" type="line"/>
      <point x="45" y="680" type="line"/>
    </contour>
    <contour>
      <point x="45" y="0" type="line"/>
      <point x="530" y="0" type="line"/>
      <point x="530" y="156" type="line"/>
      <point x="45" y="156" type="line"/>
    </contour>
    <contour>
      <point x="250" y="156" type="line"/>
      <point x="530" y="524" type="line"/>
      <point x="325" y="524" type="line"/>
      <point x="45" y="156" type="line"/>
    </contour>
  </outline>
</glyph>
<glyph name="a" format="2">
  <advance width="610"/>
  <unicode hex="0061"/>
  <outline>
    <contour>
      <point x="392" y="0" type="line"/>
      <point x="392" y="131" type="line"/>
      <point x="440" y="261" type="line"/>
      <point x="392" y="361" type="line"/>
      <point x="392" y="517" type="line"/>
      <point x="557" y="517" type="line"/>
      <point x="557" y="0" type="line"/>
    </contour>
    <contour>
      <point x="295" y="134" type="curve" smooth="yes"/>
      <point x="357" y="134"/>
      <point x="400" y="186"/>
      <point x="400" y="259" type="curve" smooth="yes"/>
      <point x="400" y="332"/>
      <point x="357" y="383"/>
      <point x="295" y="383" type="curve" smooth="yes"/>
      <point x="233" y="383"/>
      <point x="192" y="332"/>
      <point x="192" y="259" type="curve" smooth="yes"/>
      <point x="192" y="186"/>
      <point x="233" y="134"/>
    </contour>
    <contour>
      <point x="463" y="347" type="curve"/>
      <point x="463" y="173" type="line"/>
      <point x="463" y="70"/>
      <point x="380" y="-14"/>
      <point x="266" y="-14" type="curve" smooth="yes"/>
      <point x="131" y="-14"/>
      <point x="27" y="103"/>
      <point x="27" y="259" type="curve" smooth="yes"/>
      <point x="27" y="417"/>
      <point x="131" y="531"/>
      <point x="265" y="531" type="curve" smooth="yes"/>
      <point x="380" y="531"/>
      <point x="463" y="450"/>
    </contour>
  </outline>
</glyph>
<glyph name="b" format="2">
  <advance width="612"/>
  <unicode hex="0062"/>
  <outline>
    <contour>
      <point x="220" y="0" type="line"/>
      <point x="55" y="0" type="line"/>
      <point x="55" y="730" type="line"/>
      <point x="220" y="730" type="line"/>
      <point x="220" y="364" type="line"/>
      <point x="172" y="262" type="line"/>
      <point x="220" y="133" type="line"/>
    </contour>
    <contour>
      <point x="317" y="136" type="curve" smooth="yes"/>
      <point x="379" y="136"/>
      <point x="420" y="187"/>
      <point x="420" y="260" type="curve" smooth="yes"/>
      <point x="420" y="333"/>
      <point x="379" y="383"/>
      <point x="317" y="383" type="curve" smooth="yes"/>
      <point x="255" y="383"/>
      <point x="212" y="333"/>
      <point x="212" y="260" type="curve" smooth="yes"/>
      <point x="212" y="187"/>
      <point x="255" y="136"/>
    </contour>
    <contour>
      <point x="149" y="367" type="line"/>
      <point x="149" y="459"/>
      <point x="232" y="531"/>
      <point x="347" y="531" type="curve" smooth="yes"/>
      <point x="481" y="531"/>
      <point x="585" y="418"/>
      <point x="585" y="260" type="curve" smooth="yes"/>
      <point x="585" y="104"/>
      <point x="481" y="-14"/>
      <point x="346" y="-14" type="curve" smooth="yes"/>
      <point x="232" y="-14"/>
      <point x="149" y="72"/>
      <point x="149" y="175" type="curve"/>
    </contour>
  </outline>
</glyph>
<glyph name="c" format="2">
  <advance width="476"/>
  <unicode hex="0063"/>
  <outline>
    <contour>
      <point x="192" y="258" type="curve" smooth="yes"/>
      <point x="192" y="149"/>
      <point x="318" y="98"/>
      <point x="433" y="178" type="curve"/>
      <point x="433" y="15" type="line"/>
      <point x="216" y="-65"/>
      <point x="27" y="52"/>
      <point x="27" y="258" type="curve" smooth="yes"/>
      <point x="27" y="464"/>
      <point x="216" y="582"/>
      <point x="433" y="501" type="curve"/>
      <point x="433" y="338" type="line"/>
      <point x="317" y="418"/>
      <point x="192" y="367"/>
    </contour>
  </outline>
</glyph>
<glyph name="e" format="2">
  <advance width="571"/>
  <unicode hex="0065"/>
  <outline>
    <contour>
      <point x="387.0" y="260.0" type="line"/>
      <point x="387.0" y="342.0"/>
      <point x="347.1121495327103" y="386.0"/>
      <point x="290.0" y="386.0" type="curve" smooth="yes"/>
      <point x="233.63636363636363" y="386.0"/>
      <point x="190.0" y="342.0"/>
      <point x="190" y="260" type="curve" smooth="yes"/>
      <point x="190.0" y="119.70588235294119"/>
      <point x="351" y="100"/>
      <point x="510" y="185" type="curve"/>
      <point x="510" y="41" type="line"/>
      <point x="260" y="-92"/>
      <point x="27.0" y="31.438596491228083"/>
      <point x="27" y="259" type="curve" smooth="yes"/>
      <point x="27.0" y="415.0"/>
      <point x="142.72953736654804" y="533.0"/>
      <point x="298" y="533" type="curve" smooth="yes"/>
      <point x="469.6639344262295" y="533.0"/>
      <point x="566.9514143875482" y="387.74319033418317"/>
      <point x="532" y="203" type="curve"/>
      <point x="129" y="203" type="line"/>
      <point x="129" y="319" type="line"/>
      <point x="450" y="319" type="line"/>
    </contour>
  </outline>
</glyph>
<glyph name="f" format="2">
  <advance width="414"/>
  <unicode hex="0066"/>
  <outline>
    <contour>
      <point x="22" y="375" type="line"/>
      <point x="392" y="375" type="line"/>
      <point x="392" y="520" type="line"/>
      <point x="22" y="520" type="line"/>
    </contour>
    <contour>
      <point x="269" y="539" type="line" smooth="yes"/>
      <point x="269" y="592"/>
      <point x="341" y="620"/>
      <point x="426" y="561" type="curve"/>
      <point x="426" y="728" type="line"/>
      <point x="263" y="785"/>
      <point x="103" y="710.0"/>
      <point x="103" y="532" type="curve" smooth="yes"/>
      <point x="103" y="0" type="line"/>
      <point x="268" y="0" type="line"/>
    </contour>
  </outline>
</glyph>
<glyph name="g" format="2">
  <advance width="578"/>
  <unicode hex="0067"/>
  <outline>
    <contour>
      <point x="278" y="184" type="curve" smooth="yes"/>
      <point x="334" y="184"/>
      <point x="368" y="225"/>
      <point x="368" y="288" type="curve" smooth="yes"/>
      <point x="368" y="343"/>
      <point x="334" y="382"/>
      <point x="278" y="382" type="curve" smooth="yes"/>
      <point x="222" y="382"/>
      <point x="188" y="343"/>
      <point x="188" y="288" type="curve" smooth="yes"/>
      <point x="188" y="225"/>
      <point x="222" y="184"/>
    </contour>
    <contour>
      <point x="408" y="259" type="line"/>
      <point x="360" y="358" type="line"/>
      <point x="360" y="517" type="line"/>
      <point x="525" y="517" type="line"/>
      <point x="525" y="88" type="line" smooth="yes"/>
      <point x="525" y="-140"/>
      <point x="314" y="-215"/>
      <point x="82" y="-147" type="curve"/>
      <point x="82" y="20" type="line"/>
      <point x="239" y="-59"/>
      <point x="358" y="-26"/>
      <point x="358" y="85" type="curve"/>
      <point x="358" y="152" type="line"/>
    </contour>
    <contour>
      <point x="432" y="233" type="line"/>
      <point x="432" y="136"/>
      <point x="354" y="54"/>
      <point x="245" y="54" type="curve" smooth="yes"/>
      <point x="116" y="54"/>
      <point x="25" y="142"/>
      <point x="25" y="285" type="curve" smooth="yes"/>
      <point x="25" y="424"/>
      <point x="120" y="528"/>
      <point x="248" y="528" type="curve" smooth="yes"/>
      <point x="357" y="528"/>
      <point x="431" y="444"/>
      <point x="431" y="341" type="curve"/>
    </contour>
  </outline>
</glyph>
<glyph name="h" format="2">
  <advance width="592"/>
  <unicode hex="0068"/>
  <outline>
    <contour>
      <point x="55" y="0" type="line"/>
      <point x="220" y="0" type="line"/>
      <point x="220" y="730" type="line"/>
      <point x="55" y="730" type="line"/>
    </contour>
    <contour>
      <point x="151" y="344" type="curve"/>
      <point x="220" y="293" type="line"/>
      <point x="220" y="350"/>
      <point x="250" y="380"/>
      <point x="305" y="380" type="curve" smooth="yes"/>
      <point x="359" y="380"/>
      <point x="381" y="346"/>
      <point x="381" y="293" type="curve" smooth="yes"/>
      <point x="381" y="0" type="line"/>
      <point x="546" y="0" type="line"/>
      <point x="546" y="314" type="line"/>
      <point x="546" y="449"/>
      <point x="467" y="531"/>
      <point x="353" y="531" type="curve" smooth="yes"/>
      <point x="240" y="531"/>
      <point x="151" y="447"/>
    </contour>
  </outline>
</glyph>
<glyph name="i" format="2">
  <advance width="279"/>
  <unicode hex="0069"/>
  <outline>
    <contour>
      <point x="57" y="0" type="line"/>
      <point x="222" y="0" type="line"/>
      <point x="222" y="517" type="line"/>
      <point x="57" y="517" type="line"/>
    </contour>
    <contour>
      <point x="140" y="576" type="curve" smooth="yes"/>
      <point x="196" y="576"/>
      <point x="243" y="622"/>
      <point x="243" y="678" type="curve" smooth="yes"/>
      <point x="243" y="733"/>
      <point x="196" y="779"/>
      <point x="140" y="779" type="curve" smooth="yes"/>
      <point x="82" y="779"/>
      <point x="36" y="733"/>
      <point x="36" y="678" type="curve" smooth="yes"/>
      <point x="36" y="622"/>
      <point x="82" y="576"/>
    </contour>
  </outline>
</glyph>
<glyph name="j" format="2">
  <advance width="292"/>
  <unicode hex="006A"/>
  <outline>
    <contour>
      <point x="69" y="13" type="line" smooth="yes"/>
      <point x="69" y="-40"/>
      <point x="32" y="-61"/>
      <point x="-48" y="-33" type="curve"/>
      <point x="-48" y="-188" type="line"/>
      <point x="95" y="-220"/>
      <point x="235" y="-169"/>
      <point x="235" y="9" type="curve" smooth="yes"/>
      <point x="235" y="517" type="line"/>
      <point x="70" y="517" type="line"/>
    </contour>
    <contour>
      <point x="153" y="576" type="curve" smooth="yes"/>
      <point x="209" y="576"/>
      <point x="256" y="622"/>
      <point x="256" y="678" type="curve" smooth="yes"/>
      <point x="256" y="733"/>
      <point x="209" y="779"/>
      <point x="153" y="779" type="curve" smooth="yes"/>
      <point x="95" y="779"/>
      <point x="49" y="733"/>
      <point x="49" y="678" type="curve" smooth="yes"/>
      <point x="49" y="622"/>
      <point x="95" y="576"/>
    </contour>
  </outline>
</glyph>
<glyph name="k" format="2">
  <advance width="581"/>
  <unicode hex="006B"/>
  <outline>
    <contour>
      <point x="55" y="0" type="line"/>
      <point x="220" y="0" type="line"/>
      <point x="220" y="730" type="line"/>
      <point x="55" y="730" type="line"/>
    </contour>
    <contour>
      <point x="177" y="277" type="line"/>
      <point x="370" y="0" type="line"/>
      <point x="566" y="0" type="line"/>
      <point x="339" y="316" type="line"/>
      <point x="322" y="225" type="line"/>
      <point x="557" y="517" type="line"/>
      <point x="364" y="517" type="line"/>
    </contour>
  </outline>
</glyph>
<glyph name="l" format="2">
  <advance width="275"/>
  <unicode hex="006C"/>
  <outline>
    <contour>
      <point x="55" y="0" type="line"/>
      <point x="220" y="0" type="line"/>
      <point x="220" y="730" type="line"/>
      <point x="55" y="730" type="line"/>
    </contour>
  </outline>
</glyph>
<glyph name="m" format="2">
  <advance width="864"/>
  <unicode hex="006D"/>
  <outline>
    <contour>
      <point x="53" y="0" type="line"/>
      <point x="218" y="0" type="line"/>
      <point x="218" y="517" type="line"/>
      <point x="53" y="517" type="line"/>
    </contour>
    <contour>
      <point x="518" y="319" type="line"/>
      <point x="518.0" y="451.0"/>
      <point x="448.2248520710059" y="531.0"/>
      <point x="342" y="531.0" type="curve" smooth="yes"/>
      <point x="236.815" y="531.0"/>
      <point x="149.0" y="447.0"/>
      <point x="149" y="344" type="curve"/>
      <point x="218" y="306" type="line"/>
      <point x="218.0" y="355.0"/>
      <point x="243.51898734177215" y="380.0"/>
      <point x="290" y="380" type="curve" smooth="yes"/>
      <point x="335.0" y="380.0"/>
      <point x="353" y="351.0"/>
      <point x="353" y="306" type="curve" smooth="yes"/>
      <point x="353" y="0" type="line"/>
      <point x="518" y="0" type="line"/>
    </contour>
    <contour>
      <point x="435" y="344.0" type="curve"/>
      <point x="518.0" y="306.0" type="line"/>
      <point x="518.0" y="355.0"/>
      <point x="544" y="380.0"/>
      <point x="590.0" y="380.0" type="curve" smooth="yes"/>
      <point x="635.0" y="380.0"/>
      <point x="653.0" y="351.0"/>
      <point x="653.0" y="306.0" type="curve" smooth="yes"/>
      <point x="653.0" y="0.0" type="line"/>
      <point x="818.0" y="0.0" type="line"/>
      <point x="818" y="324.0" type="line"/>
      <point x="818.0" y="453.0"/>
      <point x="747" y="531.0"/>
      <point x="637" y="531.0" type="curve" smooth="yes"/>
      <point x="528" y="531.0"/>
      <point x="435.0" y="447.0"/>
    </contour>
  </outline>
</glyph>
<glyph name="n" format="2">
  <advance width="590"/>
  <unicode hex="006E"/>
  <outline>
    <contour>
      <point x="53" y="0" type="line"/>
      <point x="218" y="0" type="line"/>
      <point x="218" y="517" type="line"/>
      <point x="53" y="517" type="line"/>
    </contour>
    <contour>
      <point x="149" y="344" type="curve"/>
      <point x="218" y="293" type="line"/>
      <point x="218" y="350"/>
      <point x="247" y="380"/>
      <point x="302" y="380" type="curve" smooth="yes"/>
      <point x="357" y="380"/>
      <point x="379" y="346"/>
      <point x="379" y="293" type="curve" smooth="yes"/>
      <point x="379" y="0" type="line"/>
      <point x="544" y="0" type="line"/>
      <point x="544" y="314" type="line" smooth="yes"/>
      <point x="544" y="449"/>
      <point x="465" y="531"/>
      <point x="351" y="531" type="curve" smooth="yes"/>
      <point x="238" y="531"/>
      <point x="149" y="447"/>
    </contour>
  </outline>
</glyph>
<glyph name="o" format="2">
  <advance width="600"/>
  <unicode hex="006F"/>
  <outline>
    <contour>
      <point x="300" y="134" type="curve" smooth="yes"/>
      <point x="364.9830508474576" y="134.0"/>
      <point x="408.0" y="186.0"/>
      <point x="408" y="259" type="curve" smooth="yes"/>
      <point x="408.0" y="332.0"/>
      <point x="364.9830508474576" y="383.0"/>
      <point x="300" y="383" type="curve" smooth="yes"/>
      <point x="235.0169491525424" y="383.0"/>
      <point x="192.0" y="331.87719298245617"/>
      <point x="192" y="259" type="curve" smooth="yes"/>
      <point x="192.0" y="185.85185185185185"/>
      <point x="235.0169491525424" y="134.0"/>
    </contour>
    <contour>
      <point x="300" y="-16" type="curve" smooth="yes"/>
      <point x="144.68904593639576" y="-16.0"/>
      <point x="27.0" y="101.71929824561403"/>
      <point x="27" y="259" type="curve" smooth="yes"/>
      <point x="27.0" y="416.75757575757575"/>
      <point x="144.68904593639576" y="533.0"/>
      <point x="300" y="533" type="curve" smooth="yes"/>
      <point x="456.2756183745583" y="533.0"/>
      <point x="573.0" y="417.0"/>
      <point x="573" y="259" type="curve" smooth="yes"/>
      <point x="573.0" y="102.0"/>
      <point x="456.2756183745583" y="-16.0"/>
    </contour>
  </outline>
</glyph>
<glyph name="p" format="2">
  <advance width="612"/>
  <unicode hex="0070"/>
  <outline>
    <contour>
      <point x="220" y="517" type="line"/>
      <point x="220" y="386" type="line"/>
      <point x="172" y="256" type="line"/>
      <point x="220" y="156" type="line"/>
      <point x="220" y="-160" type="line"/>
      <point x="55" y="-160" type="line"/>
      <point x="55" y="517" type="line"/>
    </contour>
    <contour>
      <point x="317" y="383" type="curve" smooth="yes"/>
      <point x="255" y="383"/>
      <point x="212" y="331"/>
      <point x="212" y="258" type="curve" smooth="yes"/>
      <point x="212" y="185"/>
      <point x="255" y="134"/>
      <point x="317" y="134" type="curve" smooth="yes"/>
      <point x="379" y="134"/>
      <point x="420" y="185"/>
      <point x="420" y="258" type="curve" smooth="yes"/>
      <point x="420" y="331"/>
      <point x="379" y="383"/>
    </contour>
    <contour>
      <point x="149" y="173" type="curve"/>
      <point x="149" y="344" type="line"/>
      <point x="149" y="447"/>
      <point x="232" y="531"/>
      <point x="346" y="531" type="curve" smooth="yes"/>
      <point x="481" y="531"/>
      <point x="585" y="414"/>
      <point x="585" y="258" type="curve" smooth="yes"/>
      <point x="585" y="100"/>
      <point x="481" y="-14"/>
      <point x="347" y="-14" type="curve" smooth="yes"/>
      <point x="232" y="-14"/>
      <point x="149" y="70"/>
    </contour>
  </outline>
</glyph>
<glyph name="q" format="2">
  <advance width="612"/>
  <unicode hex="0071"/>
  <outline>
    <contour>
      <point x="392" y="517" type="line"/>
      <point x="557" y="517" type="line"/>
      <point x="557" y="-160" type="line"/>
      <point x="392" y="-160" type="line"/>
      <point x="392" y="156" type="line"/>
      <point x="440" y="256" type="line"/>
      <point x="392" y="386" type="line"/>
    </contour>
    <contour>
      <point x="295" y="383" type="curve" smooth="yes"/>
      <point x="233" y="383"/>
      <point x="192" y="331"/>
      <point x="192" y="258" type="curve" smooth="yes"/>
      <point x="192" y="185"/>
      <point x="233" y="134"/>
      <point x="295" y="134" type="curve" smooth="yes"/>
      <point x="357" y="134"/>
      <point x="400" y="185"/>
      <point x="400" y="258" type="curve" smooth="yes"/>
      <point x="400" y="331"/>
      <point x="357" y="383"/>
    </contour>
    <contour>
      <point x="463" y="173" type="line"/>
      <point x="463" y="70"/>
      <point x="380" y="-14"/>
      <point x="265" y="-14" type="curve" smooth="yes"/>
      <point x="131" y="-14"/>
      <point x="27" y="100"/>
      <point x="27" y="258" type="curve" smooth="yes"/>
      <point x="27" y="414"/>
      <point x="131" y="531"/>
      <point x="266" y="531" type="curve" smooth="yes"/>
      <point x="380" y="531"/>
      <point x="463" y="447"/>
      <point x="463" y="344" type="curve"/>
    </contour>
  </outline>
</glyph>
<glyph name="r" format="2">
  <advance width="415"/>
  <unicode hex="0072"/>
  <outline>
    <contour>
      <point x="55" y="0" type="line"/>
      <point x="220" y="0" type="line"/>
      <point x="220" y="517" type="line"/>
      <point x="55" y="517" type="line"/>
    </contour>
    <contour>
      <point x="220" y="279" type="line"/>
      <point x="220" y="348"/>
      <point x="290" y="402"/>
      <point x="395" y="360" type="curve"/>
      <point x="395" y="531" type="line"/>
      <point x="261" y="544"/>
      <point x="151" y="449"/>
      <point x="151" y="336" type="curve"/>
    </contour>
  </outline>
</glyph>
<glyph name="t" format="2">
  <advance width="384"/>
  <unicode hex="0074"/>
  <outline>
    <contour>
      <point x="103" y="0" type="line"/>
      <point x="268" y="0" type="line"/>
      <point x="268" y="680" type="line"/>
      <point x="103" y="650" type="line"/>
    </contour>
    <contour>
      <point x="22" y="372" type="line"/>
      <point x="362" y="372" type="line"/>
      <point x="362" y="517" type="line"/>
      <point x="22" y="517" type="line"/>
    </contour>
  </outline>
</glyph>
<glyph name="u" format="2">
  <advance width="592"/>
  <unicode hex="0075"/>
  <outline>
    <contour>
      <point x="537" y="517" type="line"/>
      <point x="372" y="517" type="line"/>
      <point x="372" y="0" type="line"/>
      <point x="537" y="0" type="line"/>
    </contour>
    <contour>
      <point x="441" y="173" type="curve"/>
      <point x="372" y="224" type="line"/>
      <point x="372" y="167"/>
      <point x="343" y="137"/>
      <point x="288" y="137" type="curve" smooth="yes"/>
      <point x="233" y="137"/>
      <point x="211" y="171"/>
      <point x="211" y="224" type="curve" smooth="yes"/>
      <point x="211" y="517" type="line"/>
      <point x="46" y="517" type="line"/>
      <point x="46" y="203" type="line" smooth="yes"/>
      <point x="46" y="68"/>
      <point x="125" y="-14"/>
      <point x="239" y="-14" type="curve" smooth="yes"/>
      <point x="352" y="-14"/>
      <point x="441" y="70"/>
    </contour>
  </outline>
</glyph>
<glyph name="v" format="2">
  <advance width="540"/>
  <unicode hex="0076"/>
  <outline>
    <contour>
      <point x="174" y="0" type="line"/>
      <point x="325" y="0" type="line"/>
      <point x="170" y="517" type="line"/>
      <point x="-5" y="517" type="line"/>
    </contour>
    <contour>
      <point x="366" y="0" type="line"/>
      <point x="545" y="517" type="line"/>
      <point x="373" y="517" type="line"/>
      <point x="220" y="0" type="line"/>
    </contour>
  </outline>
</glyph>
<glyph name="w" format="2">
  <advance width="791"/>
  <unicode hex="0077"/>
  <outline>
    <contour>
      <point x="173" y="0" type="line"/>
      <point x="325" y="0" type="line"/>
      <point x="177" y="517" type="line"/>
      <point x="7" y="517" type="line"/>
    </contour>
    <contour>
      <point x="335" y="0" type="line"/>
      <point x="468" y="517" type="line"/>
      <point x="325" y="517" type="line"/>
      <point x="204" y="0" type="line"/>
    </contour>
    <contour>
      <point x="618" y="0" type="line"/>
      <point x="784" y="517" type="line"/>
      <point x="617" y="517" type="line"/>
      <point x="469" y="0" type="line"/>
    </contour>
    <contour>
      <point x="456" y="0" type="line"/>
      <point x="590" y="0" type="line"/>
      <point x="469" y="517" type="line"/>
      <point x="325" y="517" type="line"/>
    </contour>
  </outline>
</glyph>
<glyph name="y" format="2">
  <advance width="540"/>
  <unicode hex="0079"/>
  <outline>
    <contour>
      <point x="103" y="-160" type="line"/>
      <point x="276" y="-160" type="line"/>
      <point x="545" y="517" type="line"/>
      <point x="371" y="517" type="line"/>
      <point x="239" y="140" type="line"/>
      <point x="208" y="108" type="line"/>
    </contour>
    <contour>
      <point x="343" y="81" type="line"/>
      <point x="171" y="517" type="line"/>
      <point x="-5" y="517" type="line"/>
      <point x="212" y="0" type="line"/>
    </contour>
  </outline>
</glyph>
<glyph name="z" format="2">
  <advance width="480"/>
  <unicode hex="007A"/>
  <outline>
    <contour>
      <point x="35" y="374" type="line"/>
      <point x="445" y="374" type="line"/>
      <point x="445" y="517" type="line"/>
      <point x="35" y="517" type="line"/>
    </contour>
    <contour>
      <point x="35" y="0" type="line"/>
      <point x="445" y="0" type="line"/>
      <point x="445" y="143" type="line"/>
      <point x="35" y="143" type="line"/>
    </contour>
    <contour>
      <point x="445" y="374" type="line"/>
      <point x="243" y="374" type="line"/>
      <point x="35" y="143" type="line"/>
      <point x="237" y="143" type="line"/>
    </contour>
  </outline>
</glyph>
<glyph name="quoteleft" format="2">
  <advance width="297"/>
  <unicode hex="2018"/>
  <outline>
    <contour>
      <point x="255" y="750" type="line"/>
      <point x="211" y="654"/>
      <point x="208" y="558"/>
      <point x="236" y="468" type="curve"/>
      <point x="67" y="468" type="line"/>
      <point x="44" y="558"/>
      <point x="52" y="654"/>
      <point x="101" y="750" type="curve"/>
    </contour>
  </outline>
</glyph>
<glyph name="quotedblleft" format="2">
  <advance width="518"/>
  <unicode hex="201C"/>
  <outline>
    <contour>
      <point x="232" y="448" type="line"/>
      <point x="207" y="538"/>
      <point x="212" y="634"/>
      <point x="259" y="730" type="curve"/>
      <point x="101" y="730" type="line"/>
      <point x="52" y="634"/>
      <point x="44" y="538"/>
      <point x="67" y="448" type="curve"/>
    </contour>
    <contour>
      <point x="292" y="448" type="line"/>
      <point x="267" y="538"/>
      <point x="272" y="634"/>
      <point x="319" y="730" type="curve"/>
      <point x="476" y="730" type="line"/>
      <point x="432" y="634"/>
      <point x="429" y="538"/>
      <point x="457" y="448" type="curve"/>
    </contour>
  </outline>
</glyph>
<glyph name="quotedblright" format="2">
  <advance width="518"/>
  <unicode hex="201D"/>
  <outline>
    <contour>
      <point x="286" y="730" type="line"/>
      <point x="311" y="640"/>
      <point x="306" y="544"/>
      <point x="259" y="448" type="curve"/>
      <point x="417" y="448" type="line"/>
      <point x="466" y="544"/>
      <point x="474" y="640"/>
      <point x="451" y="730" type="curve"/>
    </contour>
    <contour>
      <point x="226" y="730" type="line"/>
      <point x="251" y="640"/>
      <point x="246" y="544"/>
      <point x="199" y="448" type="curve"/>
      <point x="42" y="448" type="line"/>
      <point x="86" y="544"/>
      <point x="89" y="640"/>
      <point x="61" y="730" type="curve"/>
    </contour>
  </outline>
</glyph>
<glyph name="one.alt" format="2">
  <advance width="382"/>
  <outline>
    <contour>
      <point x="142" y="0" type="line"/>
      <point x="317" y="0" type="line"/>
      <point x="317" y="680" type="line"/>
      <point x="142" y="680" type="line"/>
    </contour>
    <contour>
      <point x="25" y="517" type="line"/>
      <point x="317" y="517" type="line"/>
      <point x="317" y="680" type="line"/>
      <point x="25" y="680" type="line"/>
    </contour>
  </outline>
</glyph>
<glyph name="one.sharp" format="2">
  <advance width="382"/>
  <outline>
    <contour>
      <point x="317" y="531" type="line"/>
      <point x="25" y="421" type="line"/>
      <point x="25" y="593" type="line"/>
      <point x="317" y="703" type="line"/>
      <point x="317" y="0" type="line"/>
      <point x="142" y="0" type="line"/>
      <point x="142" y="540" type="line"/>
    </contour>
  </outline>
</glyph>
<glyph name="t.alt" format="2">
  <advance width="445"/>
  <outline>
    <contour>
      <point x="22" y="372" type="line"/>
      <point x="404.0" y="372.0" type="line"/>
      <point x="404.0" y="517.0" type="line"/>
      <point x="22" y="517" type="line"/>
    </contour>
    <contour>
      <point x="103.0" y="157.0" type="line" smooth="yes"/>
      <point x="103" y="-1"/>
      <point x="235.86201935928722" y="-48.38931531654512"/>
      <point x="409.0" y="15.0" type="curve"/>
      <point x="409.0" y="181.0" type="line"/>
      <point x="334.49923462834306" y="127.65377294375185"/>
      <point x="268.0" y="142.0"/>
      <point x="268.0" y="198.0" type="curve" smooth="yes"/>
      <point x="268" y="680" type="line"/>
      <point x="103" y="660" type="line"/>
    </contour>
  </outline>
</glyph>
<glyph name="three.sharp" format="2">
  <advance width="518"/>
  <outline>
    <contour>
      <point x="272" y="315" type="line"/>
      <point x="508" y="680" type="line"/>
      <point x="54" y="680" type="line"/>
      <point x="54" y="523" type="line"/>
      <point x="338" y="523" type="line"/>
      <point x="335" y="666" type="line"/>
      <point x="80" y="299" type="line"/>
      <point x="265" y="310"/>
      <point x="331" y="278"/>
      <point x="331" y="220" type="curve" smooth="yes"/>
      <point x="331" y="145"/>
      <point x="211" y="125"/>
      <point x="50" y="175" type="curve"/>
      <point x="50" y="17" type="line"/>
      <point x="268" y="-62"/>
      <point x="498" y="18"/>
      <point x="498.0" y="209" type="curve" smooth="yes"/>
      <point x="498.0" y="338.0"/>
      <point x="382" y="427.0"/>
      <point x="227.0" y="427.0" type="curve"/>
    </contour>
  </outline>
</glyph>
